<?xml version="1.0" encoding="utf-8"?>
<!-- Generator: Adobe Illustrator 16.0.0, SVG Export Plug-In . SVG Version: 6.00 Build 0)  -->
<!DOCTYPE svg PUBLIC "-//W3C//DTD SVG 1.1//EN" "http://www.w3.org/Graphics/SVG/1.1/DTD/svg11.dtd">
<svg version="1.1" id="Layer_1" xmlns="http://www.w3.org/2000/svg" xmlns:xlink="http://www.w3.org/1999/xlink" x="0px" y="0px"
	 width="1400px" height="980px" viewBox="0 0 1400 980" enable-background="new 0 0 1400 980" xml:space="preserve">
<g>
	<g>
		<g>
			<rect fill="#FFFFFF" width="1399.998" height="980"/>
		</g>
	</g>
	<g>
		<polygon fill="#8D7C55" points="903.68,481.129 977.379,486.46 773.697,353.438 700.001,348.103 626.304,353.438 422.622,486.46 
			496.32,481.129 700.001,350.772 		"/>
		<path d="M977.381,488.473c-0.05,0-0.1,0-0.147-0.004l-73.698-5.331c-0.334-0.023-0.657-0.134-0.94-0.314L700.001,353.162
			L497.405,482.824c-0.283,0.181-0.605,0.291-0.939,0.314l-73.698,5.331c-0.922,0.071-1.759-0.495-2.052-1.364
			c-0.293-0.869,0.038-1.828,0.806-2.331l203.682-133.023c0.287-0.185,0.615-0.295,0.956-0.322l73.697-5.335l73.986,5.335
			c0.341,0.027,0.669,0.138,0.956,0.322l203.682,133.023c0.769,0.503,1.099,1.462,0.805,2.331
			C979.008,487.926,978.237,488.473,977.381,488.473z M904.335,479.16l65.429,4.733L773.032,355.407l-69.969-5.064L904.335,479.16z
			 M626.968,355.407l-196.73,128.485l65.428-4.733l201.309-128.84L626.968,355.407z"/>
	</g>
	<g>
		<polygon fill="#6E6042" points="700.001,611.482 731.984,591.012 903.68,481.129 700.001,350.772 496.32,481.129 668.017,591.012 
					"/>
		<path d="M700.001,613.495c-0.377,0-0.755-0.105-1.085-0.317L495.234,482.824c-0.577-0.37-0.927-1.007-0.927-1.694
			c0-0.688,0.35-1.325,0.927-1.695l203.682-130.357c0.661-0.424,1.51-0.424,2.17,0l203.68,130.357
			c0.578,0.37,0.928,1.006,0.928,1.695c0,0.688-0.35,1.325-0.928,1.694l-203.68,130.354
			C700.756,613.39,700.379,613.495,700.001,613.495z M500.055,481.129l199.946,127.963l199.944-127.963L700.001,353.162
			L500.055,481.129z"/>
	</g>
	<g>
		<g>
			<g>
				<path fill="#A7A9AC" d="M780.698,549.789v-6.636l-15.354-5.929v-23.934h-66.372h-66.362v12.91l-15.35,5.929v6.632l15.35,15.36
					v5.255l-15.35,5.937v6.632l15.35,15.352v12.876c0,23.218,18.825,42.048,42.049,42.048h24.313h4.088h20.242
					c3.371,0,6.626-0.447,9.766-1.194c18.5-4.415,32.275-21.005,32.275-40.854v-1.856l15.354-15.343v-6.649l-15.354-5.924v-5.264
					L780.698,549.789z"/>
			</g>
			<g>
				<path fill="#231F20" d="M723.304,644.233H674.66c-24.295,0-44.062-19.766-44.062-44.061v-12.042l-14.76-14.762
					c-0.377-0.377-0.59-0.889-0.59-1.424v-6.632c0-0.833,0.511-1.576,1.288-1.879l14.063-5.438v-3.042l-14.76-14.77
					c-0.377-0.379-0.59-0.89-0.59-1.424v-6.632c0-0.834,0.511-1.576,1.288-1.879l14.063-5.43v-11.53c0-1.112,0.9-2.013,2.013-2.013
					h132.733c1.112,0,2.013,0.9,2.013,2.013v22.554l14.066,5.429c0.776,0.303,1.287,1.047,1.287,1.88v6.636
					c0,0.534-0.212,1.046-0.59,1.423l-14.764,14.759v3.051l14.066,5.424c0.776,0.304,1.287,1.046,1.287,1.879v6.649
					c0,0.534-0.212,1.045-0.59,1.422l-14.764,14.755v1.022c0,20.454-13.906,38.058-33.82,42.811
					C730.001,643.825,726.653,644.233,723.304,644.233z M619.274,571.112l14.76,14.763c0.377,0.377,0.59,0.888,0.59,1.422v12.876
					c0,22.073,17.96,40.036,40.036,40.036h48.644c3.033,0,6.074-0.374,9.3-1.141c18.092-4.316,30.729-20.313,30.729-38.896v-1.856
					c0-0.534,0.212-1.045,0.589-1.424l14.765-14.753v-4.435l-14.065-5.426c-0.777-0.303-1.288-1.045-1.288-1.879v-5.264
					c0-0.534,0.212-1.046,0.589-1.423l14.765-14.758v-4.423l-14.065-5.429c-0.777-0.304-1.288-1.047-1.288-1.88v-21.921H634.624
					v10.897c0,0.834-0.511,1.576-1.288,1.879l-14.062,5.43v4.418l14.76,14.771c0.377,0.377,0.59,0.889,0.59,1.424v5.255
					c0,0.834-0.511,1.577-1.288,1.88l-14.062,5.437V571.112z"/>
			</g>
		</g>
		<g>
			<g>
				<g>
					<path fill="#FDFFBD" d="M861.125,303.655c-3.719-78.661-44.283-116.35-77.672-134.146
						c-37.051-19.743-75.057-20.761-82.308-20.761c-0.529,0-0.91,0.02-1.148,0.02c-0.004,0-0.004,0-0.004,0
						c-0.2,0-0.548-0.02-1.02-0.02c-0.042,0-0.071,0-0.12,0c-7.245,0-45.252,1.018-82.307,20.761
						c-33.388,17.77-73.951,55.486-77.672,134.304c-0.101,3.436-1.597,83.929,72.029,139.375l15.02,70.103h73.051h1.024h74.071
						l15.039-70.103C862.729,387.742,861.227,307.237,861.125,303.655z"/>
				</g>
			</g>
			<g>
				<g>
					<path fill="#231F20" d="M774.068,515.304H625.922c-0.95,0-1.77-0.664-1.968-1.592l-14.862-69.368
						c-73.83-56.044-72.332-137.154-72.231-140.59c3.768-79.801,44.899-118.014,78.74-136.023
						c37.508-19.982,75.931-20.997,83.252-20.997l0.896,0.016l1.396-0.016c7.321,0,45.748,1.014,83.255,20.997
						c33.842,18.037,74.973,56.245,78.735,135.83c0.1,3.479,1.553,84.778-72.218,140.783l-14.882,69.368
						C775.837,514.64,775.018,515.304,774.068,515.304z M627.549,511.278H772.44l14.699-68.51c0.1-0.476,0.369-0.897,0.757-1.188
						c72.732-54.779,71.313-134.5,71.215-137.866c-3.671-77.658-43.685-114.883-76.607-132.429
						c-36.658-19.534-74.204-20.525-81.358-20.525l-0.737,0.011c-0.02,0-0.394,0.008-0.411,0.008l-1.024-0.019
						c-7.273,0-44.816,0.991-81.48,20.525c-32.92,17.518-72.933,54.751-76.608,132.622c-0.097,3.322-1.563,82.855,71.229,137.673
						c0.387,0.291,0.656,0.711,0.756,1.188L627.549,511.278z"/>
				</g>
			</g>
		</g>
		<g>
			<g>
				<path fill="#FDFFBD" d="M670.204,642.221v14.817c0,15.891,12.882,28.78,28.775,28.78c15.894,0,28.778-12.89,28.778-28.78
					v-14.817H670.204z"/>
			</g>
			<g>
				<path fill="#231F20" d="M698.979,687.831c-16.978,0-30.788-13.814-30.788-30.793v-14.817c0-1.111,0.9-2.012,2.013-2.012h57.554
					c1.113,0,2.013,0.9,2.013,2.012v14.817C729.771,674.017,715.958,687.831,698.979,687.831z M672.217,644.233v12.805
					c0,14.762,12.006,26.769,26.763,26.769c14.758,0,26.766-12.007,26.766-26.769v-12.805H672.217z"/>
			</g>
		</g>
		<g>
			<g>
				<line fill="#FDFFBD" x1="670.204" y1="513.291" x2="650.823" y2="362.051"/>
			</g>
			<g>
				<path fill="#231F20" d="M670.202,515.304c-0.999,0-1.863-0.743-1.995-1.757l-19.381-151.24
					c-0.142-1.101,0.639-2.111,1.741-2.253c1.123-0.145,2.109,0.645,2.253,1.742l19.381,151.24c0.142,1.101-0.639,2.111-1.741,2.253
					C670.373,515.3,670.286,515.304,670.202,515.304z"/>
			</g>
		</g>
		<g>
			<g>
				<line fill="#FDFFBD" x1="727.758" y1="513.291" x2="747.137" y2="362.051"/>
			</g>
			<g>
				<path fill="#231F20" d="M727.76,515.304c-0.084,0-0.171-0.004-0.258-0.016c-1.103-0.142-1.883-1.152-1.741-2.253l19.379-151.24
					c0.144-1.097,1.16-1.879,2.253-1.742c1.103,0.142,1.883,1.152,1.741,2.253l-19.379,151.24
					C729.623,514.561,728.759,515.304,727.76,515.304z"/>
			</g>
		</g>
		<g>
			<g>
				<polyline fill="#FDFFBD" points="775.553,338.888 741.722,305.059 720.094,326.689 699.999,326.689 679.904,326.689 
					658.277,305.059 624.446,338.888 				"/>
			</g>
			<g>
				<path fill="#231F20" d="M775.553,340.9c-0.516,0-1.031-0.196-1.424-0.589l-32.407-32.405l-20.205,20.207
					c-0.377,0.377-0.888,0.589-1.423,0.589h-40.189c-0.535,0-1.045-0.212-1.423-0.589l-20.205-20.207l-32.408,32.405
					c-0.787,0.786-2.06,0.786-2.846,0c-0.787-0.787-0.787-2.06,0-2.846l33.831-33.829c0.377-0.377,0.889-0.59,1.423-0.59l0,0
					c0.534,0,1.045,0.212,1.423,0.59l21.038,21.04h38.523l21.038-21.04c0.755-0.755,2.091-0.755,2.846,0l33.831,33.829
					c0.786,0.786,0.786,2.06,0,2.846C776.583,340.704,776.067,340.9,775.553,340.9z"/>
			</g>
		</g>
	</g>
	<g>
		<polygon fill="#8D7C55" points="668.017,591.012 496.32,481.129 431.239,554.538 496.32,596.19 634.921,684.892 700.001,611.482 
					"/>
		<path d="M634.921,686.904c-0.375,0-0.751-0.103-1.085-0.319L430.154,556.232c-0.495-0.314-0.827-0.834-0.908-1.42
			c-0.081-0.581,0.096-1.171,0.487-1.611l65.08-73.409c0.657-0.743,1.761-0.893,2.591-0.358l203.681,130.354
			c0.495,0.314,0.827,0.834,0.908,1.42c0.081,0.581-0.097,1.171-0.487,1.611l-65.081,73.409
			C636.033,686.672,635.479,686.904,634.921,686.904z M434.308,554.113l200.25,128.155l62.375-70.361L496.684,483.751
			L434.308,554.113z"/>
	</g>
	<g>
		<polygon fill="#8D7C55" points="634.921,684.892 496.32,596.19 496.32,700.896 700.001,831.253 700.001,611.482 		"/>
		<path d="M700.001,833.266c-0.377,0-0.755-0.106-1.085-0.318L495.234,702.59c-0.577-0.37-0.927-1.007-0.927-1.694V596.19
			c0-0.735,0.401-1.412,1.045-1.766c0.648-0.35,1.433-0.326,2.052,0.07l137.153,87.773l63.938-72.123
			c0.552-0.62,1.441-0.837,2.219-0.546c0.783,0.299,1.299,1.045,1.299,1.883v219.771c0,0.735-0.401,1.411-1.045,1.765
			C700.666,833.183,700.333,833.266,700.001,833.266z M498.333,699.795l199.656,127.778V616.786l-61.562,69.442
			c-0.656,0.742-1.761,0.896-2.59,0.356l-135.503-86.716V699.795z"/>
	</g>
	<g>
		<polygon fill="#8D7C55" points="700.001,611.482 700.001,831.253 903.68,700.896 903.68,596.19 765.079,684.892 		"/>
		<path d="M700.001,833.266c-0.332,0-0.665-0.083-0.967-0.248c-0.645-0.354-1.046-1.029-1.046-1.765V611.482
			c0-0.838,0.517-1.584,1.299-1.883c0.779-0.287,1.666-0.074,2.22,0.546l63.937,72.123l137.151-87.773
			c0.624-0.396,1.408-0.42,2.053-0.07c0.646,0.354,1.046,1.03,1.046,1.766v104.705c0,0.688-0.35,1.324-0.928,1.694l-203.68,130.357
			C700.756,833.159,700.379,833.266,700.001,833.266z M702.014,616.786v210.787l199.654-127.778v-99.926l-135.503,86.716
			c-0.829,0.544-1.935,0.386-2.592-0.356L702.014,616.786z"/>
	</g>
	<g>
		<polygon fill="#8D7C55" points="903.68,481.129 731.984,591.012 700.001,611.482 765.079,684.892 903.68,596.19 968.761,554.538 
					"/>
		<path d="M765.079,686.904c-0.559,0-1.112-0.232-1.506-0.676l-65.078-73.409c-0.392-0.44-0.568-1.03-0.488-1.611
			c0.081-0.586,0.413-1.105,0.908-1.42l203.679-130.354c0.834-0.535,1.935-0.385,2.592,0.358l65.079,73.409
			c0.393,0.44,0.568,1.03,0.488,1.611c-0.08,0.586-0.412,1.105-0.907,1.42L766.165,686.585
			C765.83,686.802,765.453,686.904,765.079,686.904z M703.069,611.907l62.374,70.361l200.249-128.155l-62.376-70.362
			L703.069,611.907z"/>
	</g>
	<g>
		<path d="M689.226,528.214h-56.614c-1.112,0-2.013-0.9-2.013-2.013s0.9-2.013,2.013-2.013h56.614c1.112,0,2.013,0.9,2.013,2.013
			S690.338,528.214,689.226,528.214z"/>
	</g>
	<g>
		<path d="M715.271,556.134h-82.66c-1.112,0-2.013-0.899-2.013-2.012c0-1.114,0.9-2.014,2.013-2.014h82.66
			c1.113,0,2.014,0.899,2.014,2.014C717.285,555.234,716.385,556.134,715.271,556.134z"/>
	</g>
	<g>
		<path d="M689.226,584.059h-35.223c-1.112,0-2.012-0.9-2.012-2.014c0-1.112,0.9-2.013,2.012-2.013h35.223
			c1.112,0,2.013,0.9,2.013,2.013C691.238,583.158,690.338,584.059,689.226,584.059z"/>
	</g>
	<g>
		<g>
			<g>
				<path d="M1310.646,540.856h-287.813c-1.113,0-2.014-0.9-2.014-2.013v-47.765c0-1.112,0.9-2.013,2.014-2.013h287.813
					c1.112,0,2.013,0.9,2.013,2.013v47.765C1312.659,539.956,1311.759,540.856,1310.646,540.856z M1024.847,536.832h283.787v-43.74
					h-283.787V536.832z"/>
			</g>
			<g>
				<path d="M1310.646,694.153h-287.813c-1.113,0-2.014-0.9-2.014-2.013V538.844c0-1.112,0.9-2.012,2.014-2.012h287.813
					c1.112,0,2.013,0.899,2.013,2.012v153.297C1312.659,693.253,1311.759,694.153,1310.646,694.153z M1024.847,690.128h283.787
					V540.856h-283.787V690.128z"/>
			</g>
		</g>
		<g>
			<path d="M1047.08,525.219c-5.658,0-10.26-4.6-10.26-10.257s4.602-10.261,10.26-10.261c5.655,0,10.257,4.604,10.257,10.261
				S1052.735,525.219,1047.08,525.219z M1047.08,508.727c-3.437,0-6.233,2.796-6.233,6.235c0,3.436,2.797,6.23,6.233,6.23
				c3.436,0,6.23-2.795,6.23-6.23C1053.311,511.522,1050.516,508.727,1047.08,508.727z"/>
		</g>
		<g>
			<path d="M1080.947,525.219c-5.657,0-10.259-4.6-10.259-10.257s4.602-10.261,10.259-10.261c5.656,0,10.256,4.604,10.256,10.261
				S1086.604,525.219,1080.947,525.219z M1080.947,508.727c-3.436,0-6.232,2.796-6.232,6.235c0,3.436,2.797,6.23,6.232,6.23
				c3.435,0,6.229-2.795,6.229-6.23C1087.177,511.522,1084.382,508.727,1080.947,508.727z"/>
		</g>
		<g>
			<path d="M1124.327,592.997h-76.808c-1.112,0-2.013-0.899-2.013-2.013v-33.368c0-1.112,0.9-2.013,2.013-2.013h76.808
				c1.113,0,2.014,0.9,2.014,2.013v33.368C1126.341,592.098,1125.44,592.997,1124.327,592.997z M1049.533,588.973h72.781v-29.344
				h-72.781V588.973z"/>
		</g>
		<g>
			<path d="M1205.665,592.997h-59.081c-1.112,0-2.012-0.899-2.012-2.013v-33.368c0-1.112,0.899-2.013,2.012-2.013h59.081
				c1.113,0,2.014,0.9,2.014,2.013v33.368C1207.679,592.098,1206.778,592.997,1205.665,592.997z M1148.597,588.973h55.056v-29.344
				h-55.056V588.973z"/>
		</g>
		<g>
			<path d="M1285.962,664.951h-59.081c-1.113,0-2.014-0.899-2.014-2.012V557.616c0-1.112,0.9-2.013,2.014-2.013h59.081
				c1.112,0,2.013,0.9,2.013,2.013v105.323C1287.975,664.052,1287.074,664.951,1285.962,664.951z M1228.894,660.927h55.056V559.629
				h-55.056V660.927z"/>
		</g>
		<g>
			<path d="M1205.665,617.506H1047.52c-1.112,0-2.013-0.9-2.013-2.013c0-1.113,0.9-2.014,2.013-2.014h158.146
				c1.113,0,2.014,0.9,2.014,2.014C1207.679,616.605,1206.778,617.506,1205.665,617.506z"/>
		</g>
		<g>
			<path d="M1205.665,641.227H1047.52c-1.112,0-2.013-0.9-2.013-2.014c0-1.112,0.9-2.012,2.013-2.012h158.146
				c1.113,0,2.014,0.899,2.014,2.012C1207.679,640.326,1206.778,641.227,1205.665,641.227z"/>
		</g>
		<g>
			<path d="M1205.665,664.951H1047.52c-1.112,0-2.013-0.899-2.013-2.012s0.9-2.013,2.013-2.013h158.146
				c1.113,0,2.014,0.9,2.014,2.013S1206.778,664.951,1205.665,664.951z"/>
		</g>
		<g>
			<g>
				<path d="M1266.688,493.092h-121.174c-0.824,0-1.564-0.503-1.869-1.266l-0.287-0.742c-2.316-5.159-6.541-9.137-11.886-11.197
					c-1.518-0.586-3.066-1.006-4.602-1.243l-1.947-0.279c-1.078-0.158-1.839-1.14-1.713-2.226l0.229-1.977
					c0.883-7.43,2.777-14.711,5.634-21.653l0.746-1.84c0.408-1.006,1.539-1.522,2.562-1.128l1.855,0.684
					c5.366,1.989,11.207,1.816,16.342-0.484c10.792-4.839,15.652-17.561,10.837-28.36c-0.323-0.652-0.702-1.38-1.119-2.111
					l-1.002-1.679c-0.563-0.943-0.264-2.166,0.675-2.744l1.702-1.049c3.494-2.154,6.788-3.92,10.07-5.394
					c3.463-1.552,7.082-2.877,10.757-3.939l1.901-0.55c1.049-0.307,2.137,0.283,2.473,1.309l0.617,1.887
					c0.239,0.747,0.497,1.501,0.827,2.245c2.329,5.193,6.538,9.183,11.844,11.231c5.357,2.06,11.245,1.899,16.478-0.44
					c5.21-2.311,9.192-6.51,11.222-11.833l0.723-1.871c0.39-1.022,1.528-1.533,2.559-1.172l1.873,0.673
					c7.036,2.473,13.75,5.909,19.939,10.206l1.646,1.167c0.889,0.628,1.115,1.852,0.512,2.76l-1.114,1.675
					c-4.062,6.133-4.69,13.818-1.678,20.556c2.32,5.178,6.519,9.16,11.826,11.216c4.532,1.734,9.641,1.883,14.237,0.413l1.895-0.602
					c1.038-0.306,2.133,0.224,2.5,1.23l0.68,1.875c2.507,7.163,4.029,14.671,4.531,22.337l0.14,2.009
					c0.074,1.097-0.747,2.052-1.843,2.143l-2.019,0.165c-2.491,0.193-4.89,0.794-7.138,1.785c-3.517,1.584-6.561,4.124-8.785,7.344
					C1267.968,492.766,1267.35,493.092,1266.688,493.092z M1146.863,489.066h118.798c2.574-3.412,5.954-6.121,9.83-7.862
					c2.677-1.18,5.518-1.891,8.456-2.119l0.027-0.004l-0.004-0.035c-0.478-7.309-1.926-14.456-4.306-21.253l-0.015-0.039
					l-0.046,0.016c-5.448,1.745-11.513,1.572-16.906-0.491c-6.31-2.441-11.299-7.174-14.054-13.327
					c-3.578-8.004-2.83-17.137,1.999-24.429l0.035-0.051l-0.037-0.023c-5.878-4.08-12.268-7.352-18.978-9.71l-0.034-0.012
					l-0.013,0.027c-2.409,6.326-7.148,11.326-13.34,14.07c-6.196,2.772-13.207,2.96-19.563,0.523
					c-6.307-2.434-11.303-7.175-14.072-13.347c-0.394-0.884-0.702-1.78-0.982-2.646l-0.009-0.031l-0.033,0.012
					c-3.497,1.006-6.938,2.264-10.228,3.743c-3.117,1.403-6.261,3.085-9.608,5.15l-0.014,0.008l0.007,0.011
					c0.478,0.838,0.896,1.636,1.284,2.426c5.753,12.895-0.021,27.999-12.834,33.743c-6.095,2.732-13.045,2.937-19.386,0.585
					l-0.021-0.008l-0.019,0.043c-2.721,6.608-4.523,13.535-5.361,20.596l-0.004,0.027l0.031,0.004
					c1.842,0.287,3.672,0.778,5.457,1.466C1139.131,478.523,1144.066,483.107,1146.863,489.066z"/>
			</g>
			<g>
				<path d="M1245.305,493.092h-80.179c-0.957,0-1.782-0.676-1.974-1.615c-1.621-8.036-0.929-16.299,2.002-23.898
					c6.34-16.448,22.445-27.499,40.069-27.499c5.279,0,10.474,0.971,15.441,2.885c19.569,7.548,30.763,27.948,26.613,48.512
					C1247.087,492.416,1246.262,493.092,1245.305,493.092z M1166.81,489.066h76.813c2.877-18.08-7.185-35.704-24.403-42.344
					c-4.505-1.737-9.213-2.618-13.995-2.618c-15.974,0-30.565,10.013-36.315,24.92
					C1166.451,475.401,1165.731,482.297,1166.81,489.066z"/>
			</g>
		</g>
	</g>
	<g>
		<g>
			<path d="M282.507,326.088c-0.289,0-0.58-0.063-0.847-0.189l-151.816-70.507c-0.711-0.331-1.166-1.042-1.166-1.824
				s0.455-1.494,1.166-1.824l151.816-70.5c0.535-0.252,1.16-0.252,1.694,0l151.814,70.5c0.711,0.33,1.166,1.042,1.166,1.824
				s-0.455,1.494-1.166,1.824l-151.814,70.507C283.087,326.024,282.796,326.088,282.507,326.088z M135.47,253.567l147.037,68.286
				l147.036-68.286l-147.036-68.278L135.47,253.567z"/>
		</g>
		<g>
			<path d="M282.507,447.906c-0.289,0-0.578-0.063-0.847-0.188l-152.276-70.712c-0.712-0.33-1.166-1.042-1.166-1.824V253.779
				c0-0.786,0.456-1.498,1.169-1.828l0.46-0.212c0.535-0.244,1.155-0.248,1.69,0.004l151.816,70.507
				c0.711,0.331,1.166,1.042,1.166,1.824v121.818c0,0.688-0.35,1.329-0.93,1.698C283.262,447.8,282.885,447.906,282.507,447.906z
				 M132.245,373.896l148.25,68.844V325.36l-148.25-68.853V373.896z"/>
		</g>
		<g>
			<path d="M282.507,447.906c-0.377,0-0.754-0.106-1.083-0.314c-0.58-0.37-0.93-1.01-0.93-1.698V324.075
				c0-0.782,0.454-1.494,1.166-1.824l151.814-70.507c0.533-0.252,1.154-0.248,1.69-0.004l0.46,0.212
				c0.713,0.33,1.17,1.042,1.17,1.828v121.402c0,0.782-0.454,1.494-1.166,1.824l-152.274,70.712
				C283.085,447.843,282.796,447.906,282.507,447.906z M284.521,325.36v117.38l148.248-68.844V256.508L284.521,325.36z"/>
		</g>
		<g>
			<path d="M361.041,386.814c-0.377,0-0.755-0.106-1.083-0.314c-0.58-0.37-0.93-1.01-0.93-1.698v-31.443
				c0-0.782,0.454-1.493,1.166-1.824l39.185-18.198c0.561-0.263,1.208-0.252,1.76,0.031c0.676,0.342,1.216,1.093,1.216,1.852v31.325
				c0,0.782-0.454,1.494-1.166,1.824l-39.301,18.257C361.618,386.751,361.33,386.814,361.041,386.814z M363.053,354.645v27.004
				l35.275-16.389v-26.997L363.053,354.645z"/>
		</g>
		<g>
			<path d="M434.781,255.792c-0.287,0-0.574-0.063-0.843-0.185l-0.459-0.213c-0.714-0.33-1.17-1.042-1.17-1.828
				s0.456-1.498,1.17-1.828l0.459-0.212c0.625-0.287,1.354-0.24,1.929,0.133c0.578,0.37,0.928,1.007,0.928,1.695v0.424
				c0,0.688-0.35,1.325-0.928,1.695C435.538,255.686,435.161,255.792,434.781,255.792z"/>
		</g>
		<g>
			<path d="M130.231,255.792c-0.379,0-0.757-0.106-1.085-0.318c-0.577-0.37-0.927-1.006-0.927-1.695v-0.424
				c0-0.688,0.35-1.325,0.927-1.695c0.576-0.369,1.307-0.417,1.929-0.133l0.46,0.212c0.713,0.33,1.169,1.042,1.169,1.828
				s-0.456,1.498-1.169,1.828l-0.46,0.213C130.805,255.729,130.519,255.792,130.231,255.792z"/>
		</g>
		<g>
			<g>
				<path d="M217.142,333.679c-0.289,0-0.577-0.063-0.847-0.188l-28.301-13.146c-0.712-0.33-1.166-1.042-1.166-1.824v-37.945
					c0-0.782,0.454-1.494,1.166-1.824L339.8,208.244c0.535-0.252,1.156-0.252,1.694,0l28.447,13.205
					c0.711,0.33,1.166,1.042,1.166,1.824s-0.454,1.494-1.166,1.824l-150.824,70.036l0.038,35.967
					c0.053,0.177,0.081,0.37,0.081,0.566c0,1.128-0.949,2.087-2.054,2.013C217.169,333.679,217.156,333.679,217.142,333.679z
					 M190.854,317.234l24.271,11.275l-0.035-34.658c0-0.786,0.454-1.498,1.166-1.828l148.058-68.75l-23.666-10.984l-149.794,69.572
					V317.234z"/>
			</g>
		</g>
		<g>
			<path d="M303.54,408.538c-0.76,0-1.486-0.433-1.828-1.164c-0.468-1.01-0.03-2.205,0.979-2.673l46.785-21.725
				c1.012-0.476,2.205-0.027,2.673,0.975c0.468,1.011,0.029,2.206-0.979,2.674l-46.784,21.724
				C304.112,408.479,303.823,408.538,303.54,408.538z"/>
		</g>
		<g>
			<path d="M303.54,397.68c-0.76,0-1.486-0.433-1.828-1.164c-0.468-1.011-0.03-2.206,0.979-2.673l46.785-21.728
				c1.012-0.472,2.205-0.023,2.673,0.975c0.468,1.011,0.029,2.206-0.979,2.673l-46.784,21.728
				C304.112,397.621,303.823,397.68,303.54,397.68z"/>
		</g>
		<g>
			<path d="M303.54,386.814c-0.76,0-1.486-0.432-1.828-1.164c-0.468-1.01-0.03-2.206,0.979-2.673l46.785-21.724
				c1.012-0.476,2.205-0.027,2.673,0.975c0.468,1.011,0.029,2.206-0.979,2.673l-46.784,21.725
				C304.112,386.755,303.823,386.814,303.54,386.814z"/>
		</g>
	</g>
	<g>
		<g>
			<path d="M354.114,728.787H123.522c-1.112,0-2.012-0.899-2.012-2.012v-230.59c0-1.112,0.9-2.012,2.012-2.012h230.591
				c1.112,0,2.013,0.899,2.013,2.012v230.59C356.126,727.888,355.226,728.787,354.114,728.787z M125.536,724.763h226.565V498.199
				H125.536V724.763z"/>
		</g>
		<g>
			<path d="M237.019,622.494c-0.534,0-1.045-0.213-1.423-0.59l-52.206-52.207c-0.725-0.728-0.79-1.879-0.147-2.682
				c13.606-16.982,33.862-26.725,55.575-26.725c20.696,0,40.338,9.007,53.894,24.704c0.69,0.798,0.645,1.993-0.1,2.74
				l-54.169,54.169C238.064,622.281,237.553,622.494,237.019,622.494z M187.528,568.141l49.491,49.494l51.405-51.405
				c-12.731-13.952-30.703-21.913-49.606-21.913C218.933,544.316,200.342,552.977,187.528,568.141z"/>
		</g>
		<g>
			<path d="M238.817,682.674c-39.254,0-71.189-31.938-71.189-71.191c0-6.742,0.959-13.449,2.852-19.938
				c0.198-0.685,0.743-1.212,1.433-1.389c0.692-0.177,1.421,0.027,1.922,0.526l63.184,63.184l65.921-65.92
				c0.494-0.49,1.209-0.691,1.882-0.537c0.678,0.16,1.226,0.66,1.448,1.316c2.48,7.352,3.736,15.01,3.736,22.758
				C310.006,650.736,278.071,682.674,238.817,682.674z M173.464,596.005c-1.203,5.075-1.811,10.265-1.811,15.478
				c0,37.036,30.129,67.166,67.164,67.166s67.164-30.13,67.164-67.166c0-6.215-0.857-12.368-2.551-18.336l-64.988,64.988
				c-0.787,0.786-2.06,0.786-2.847,0L173.464,596.005z"/>
		</g>
		<g>
			<path d="M304.364,591.382c-0.516,0-1.03-0.196-1.424-0.589c-0.786-0.787-0.786-2.061,0-2.848l33.428-33.427l-15.273-15.265
				l-28.484,28.481c-0.786,0.786-2.06,0.786-2.846,0s-0.786-2.06,0-2.846l29.907-29.905c0.786-0.787,2.06-0.787,2.846,0
				l18.119,18.11c0.377,0.378,0.59,0.889,0.59,1.424c0,0.534-0.212,1.046-0.59,1.424l-34.851,34.851
				C305.394,591.186,304.878,591.382,304.364,591.382z"/>
		</g>
	</g>
	<g>
		<g>
			<path d="M1100.603,385.914c-0.004,0-0.004,0-0.011,0c-21.023-0.003-41.536-6.026-59.313-17.416
				c-51.136-32.775-66.08-101.034-33.315-152.16c20.354-31.769,55.061-50.733,92.839-50.733c21.024,0,41.536,6.022,59.319,17.419
				c24.771,15.871,41.877,40.441,48.172,69.179c6.292,28.738,1.017,58.207-14.856,82.978
				C1173.081,366.945,1138.374,385.914,1100.603,385.914z M1100.803,169.631c-36.399,0-69.839,18.272-89.451,48.877
				c-31.567,49.259-17.169,115.025,32.1,146.601c17.129,10.972,36.888,16.775,57.141,16.779c0.002,0,0.009,0,0.011,0
				c36.396,0,69.831-18.272,89.445-48.877c15.294-23.867,20.377-52.258,14.313-79.947c-6.064-27.688-22.546-51.358-46.409-66.65
				C1140.817,175.433,1121.055,169.631,1100.803,169.631z"/>
		</g>
		<g>
			<path d="M1169.968,322.157c-0.372,0-0.747-0.103-1.085-0.319c-0.937-0.602-1.207-1.844-0.607-2.779
				c4.097-6.396,7.257-13.292,9.394-20.498c0.316-1.058,1.435-1.664,2.502-1.356c1.065,0.314,1.675,1.435,1.358,2.504
				c-2.245,7.568-5.563,14.809-9.865,21.52C1171.28,321.83,1170.63,322.157,1169.968,322.157z"/>
		</g>
		<g>
			<path d="M1100.781,360.121c-15.708,0-31.52-4.407-45.556-13.402c-5.088-3.251-9.83-7.057-14.094-11.302
				c-0.786-0.786-0.79-2.06-0.004-2.846c0.786-0.79,2.06-0.787,2.846-0.008c4.06,4.045,8.575,7.669,13.422,10.768
				c31.33,20.077,71.954,16.153,98.789-9.553c0.8-0.771,2.074-0.743,2.846,0.063c0.769,0.802,0.741,2.075-0.063,2.846
				C1142.81,352.164,1121.89,360.121,1100.781,360.121z"/>
		</g>
		<g>
			<path d="M1026.728,313.81c-0.747,0-1.464-0.417-1.812-1.132c-2.997-6.165-5.239-12.702-6.665-19.424
				c-1.898-8.936-2.338-18.057-1.302-27.11c1.46-12.828,5.763-24.893,12.786-35.857c12.146-18.957,30.944-32.047,52.938-36.863
				c21.983-4.812,44.542-0.778,63.499,11.369c25.048,16.051,39.9,44.51,38.76,74.266c-0.041,1.109-1.02,2.029-2.087,1.935
				c-1.111-0.043-1.978-0.979-1.934-2.092c1.084-28.333-13.059-55.435-36.912-70.72c-18.052-11.573-39.534-15.418-60.464-10.827
				c-20.942,4.584-38.846,17.054-50.412,35.103c-6.688,10.445-10.785,21.932-12.176,34.143c-0.985,8.621-0.566,17.305,1.243,25.821
				c1.356,6.404,3.491,12.627,6.346,18.496c0.485,1.003,0.068,2.206-0.931,2.689C1027.32,313.748,1027.022,313.81,1026.728,313.81z"
				/>
		</g>
		<g>
			<path d="M1100.651,334.194c-0.004,0-0.002,0-0.004,0c-11.157-0.003-22.039-3.196-31.472-9.243
				c-27.123-17.376-35.05-53.587-17.67-80.713c10.796-16.849,29.208-26.91,49.249-26.91c11.152,0,22.034,3.192,31.465,9.235
				c27.127,17.384,35.056,53.595,17.672,80.717C1139.097,324.13,1120.688,334.194,1100.651,334.194z M1100.755,221.354
				c-18.663,0-35.808,9.364-45.859,25.054c-16.182,25.258-8.801,58.973,16.452,75.154c8.784,5.629,18.915,8.602,29.3,8.605
				c0,0,0.002,0,0.004,0c18.659,0,35.8-9.368,45.853-25.058c16.183-25.258,8.803-58.973-16.457-75.158
				C1121.267,224.326,1111.137,221.354,1100.755,221.354z"/>
		</g>
		<g>
			<path d="M1100.64,309.517c-6.383,0-12.644-1.82-18.146-5.351c-7.587-4.859-12.827-12.387-14.756-21.189
				c-1.926-8.807-0.311-17.833,4.553-25.42c9.316-14.558,27.998-19.723,43.449-12.01c1.074,0.535,2.135,1.14,3.172,1.809
				c0.934,0.605,1.201,1.848,0.598,2.783c-0.602,0.928-1.846,1.207-2.784,0.598c-0.907-0.59-1.837-1.117-2.783-1.588
				c-13.601-6.789-30.055-2.237-38.263,10.579c-4.283,6.684-5.707,14.636-4.008,22.389c1.696,7.752,6.312,14.38,12.995,18.662
				c6.681,4.281,14.63,5.708,22.389,4.014c7.754-1.695,14.383-6.313,18.666-12.997c2.688-4.195,4.288-9.031,4.628-13.976
				c0.079-1.108,1.062-1.926,2.146-1.871c1.111,0.079,1.947,1.038,1.872,2.146c-0.388,5.622-2.206,11.11-5.259,15.87
				c-4.86,7.591-12.387,12.832-21.193,14.762C1105.496,309.254,1103.059,309.517,1100.64,309.517z"/>
		</g>
		<g>
			<path d="M1100.692,288.938L1100.692,288.938c-2.519,0-4.973-0.72-7.103-2.084c-2.964-1.899-5.01-4.84-5.765-8.279
				c-0.752-3.44-0.119-6.962,1.779-9.927c2.437-3.797,6.589-6.07,11.105-6.07c2.516,0,4.972,0.724,7.1,2.088
				c2.963,1.898,5.009,4.839,5.765,8.279c0.752,3.44,0.119,6.966-1.78,9.926C1109.358,286.669,1105.208,288.938,1100.692,288.938z
				 M1100.71,266.603c-3.139,0-6.022,1.581-7.717,4.218c-1.319,2.057-1.757,4.506-1.234,6.892c0.522,2.391,1.946,4.431,4.004,5.751
				c4.132,2.65,10.01,1.345,12.644-2.763c1.318-2.06,1.757-4.506,1.234-6.896c-0.523-2.391-1.944-4.431-4.002-5.752
				C1104.157,267.106,1102.454,266.603,1100.71,266.603z"/>
		</g>
		<g>
			<path d="M955.099,209.254c-0.381,0-0.758-0.106-1.088-0.318l-11.138-7.139c-0.343-0.22-0.612-0.542-0.772-0.924l-1.893-4.557
				l-5.156,0.075c-0.417,0-0.782-0.106-1.114-0.318l-16.262-10.399c-0.614-0.393-0.969-1.089-0.924-1.816
				c0.044-0.727,0.479-1.376,1.139-1.694l21.03-10.096l0.363-23.289c0.013-0.731,0.419-1.396,1.062-1.741
				c0.645-0.351,1.423-0.315,2.04,0.078l16.238,10.434c0.33,0.212,0.594,0.519,0.753,0.88l2.082,4.714l4.939-0.185
				c0.363-0.032,0.813,0.094,1.159,0.318l11.138,7.131c0.596,0.381,0.947,1.046,0.928,1.749l-0.676,24.347
				c-0.022,0.747-0.452,1.419-1.121,1.75l-21.836,10.791C955.707,209.184,955.402,209.254,955.099,209.254z M945.578,198.746
				l9.647,6.188l19.731-9.75l0.609-21.999l-9.648-6.176l-5.674,0.212c-0.775,0.071-1.582-0.444-1.917-1.199l-2.388-5.41
				l-12.687-8.153l-0.326,20.918c-0.013,0.763-0.454,1.455-1.143,1.785l-18.896,9.069l12.71,8.125l5.914-0.086
				c0.817-0.095,1.57,0.476,1.89,1.242L945.578,198.746z"/>
		</g>
		<g>
			<path fill="none" stroke="#000000" stroke-linecap="round" stroke-linejoin="round" stroke-miterlimit="10" d="M1100.7,275.763"
				/>
		</g>
		<g>
			<path d="M1100.708,277.753c-0.371,0-0.747-0.103-1.083-0.319L939.829,175.04c-0.938-0.598-1.21-1.844-0.61-2.779
				c0.596-0.939,1.841-1.215,2.779-0.609l159.797,102.394c0.938,0.598,1.21,1.844,0.61,2.78
				C1102.021,277.426,1101.371,277.753,1100.708,277.753z"/>
		</g>
		<g>
			<path d="M1007.126,463.316c-0.039,0-0.08,0-0.122-0.003c-0.729-0.043-1.375-0.48-1.691-1.136l-10.098-21.037l-23.289-0.366
				c-0.731-0.011-1.397-0.417-1.744-1.061c-0.344-0.645-0.313-1.423,0.081-2.041l10.432-16.236c0.214-0.331,0.521-0.594,0.881-0.751
				l4.715-2.083l-0.187-4.941c-0.016-0.409,0.095-0.814,0.316-1.16l7.138-11.133c0.381-0.594,1.034-0.916,1.749-0.928l24.346,0.676
				c0.748,0.02,1.42,0.452,1.75,1.12l10.785,21.834c0.313,0.634,0.271,1.384-0.109,1.978l-7.136,11.138
				c-0.22,0.346-0.542,0.617-0.922,0.774l-4.562,1.895l0.075,5.154c0.005,0.393-0.104,0.778-0.317,1.113l-10.395,16.268
				C1008.45,462.967,1007.811,463.316,1007.126,463.316z M975.605,436.808l20.916,0.326c0.763,0.012,1.453,0.456,1.782,1.14
				l9.072,18.898l8.124-12.71l-0.086-5.917c-0.012-0.822,0.479-1.569,1.239-1.887l5.241-2.174l6.182-9.651l-9.746-19.727
				l-21.997-0.61l-6.184,9.644l0.214,5.677c0.031,0.821-0.442,1.584-1.196,1.914l-5.412,2.39L975.605,436.808z"/>
		</g>
		<g>
			<path d="M996.488,441.16c-0.372,0-0.747-0.103-1.083-0.319c-0.938-0.597-1.209-1.844-0.609-2.779l73.902-115.379
				c0.597-0.939,1.843-1.215,2.779-0.609c0.938,0.598,1.209,1.844,0.609,2.779l-73.903,115.379
				C997.801,440.833,997.15,441.16,996.488,441.16z"/>
		</g>
	</g>
	<g>
		<g>
			<path d="M448.588,914.077c-45.668,0-82.822-37.154-82.822-82.824c0-45.665,37.154-82.82,82.822-82.82
				c45.667,0,82.822,37.155,82.822,82.82C531.41,876.923,494.256,914.077,448.588,914.077z M448.588,752.458
				c-43.449,0-78.796,35.346-78.796,78.795c0,43.448,35.348,78.798,78.796,78.798c43.448,0,78.796-35.35,78.796-78.798
				C527.385,787.804,492.037,752.458,448.588,752.458z"/>
		</g>
		<g>
			<path d="M448.588,893.587c-34.374,0-62.337-27.963-62.337-62.334s27.963-62.334,62.337-62.334
				c34.371,0,62.334,27.963,62.334,62.334S482.959,893.587,448.588,893.587z M448.588,772.944
				c-32.152,0-58.311,26.159-58.311,58.309s26.159,58.308,58.311,58.308s58.309-26.158,58.309-58.308
				S480.74,772.944,448.588,772.944z"/>
		</g>
		<g>
			<path d="M367.779,833.266h-54.13c-1.112,0-2.013-0.9-2.013-2.013c0-1.113,0.9-2.014,2.013-2.014h54.13
				c1.113,0,2.013,0.9,2.013,2.014C369.792,832.365,368.892,833.266,367.779,833.266z"/>
		</g>
		<g>
			<path d="M299.77,847.461H187.891c-0.813,0-1.549-0.491-1.859-1.242c-0.313-0.75-0.14-1.619,0.437-2.193l31.6-31.6
				c0.377-0.377,0.889-0.59,1.423-0.59h111.88c0.814,0,1.549,0.491,1.86,1.242c0.312,0.751,0.139,1.62-0.437,2.194l-31.602,31.6
				C300.815,847.249,300.305,847.461,299.77,847.461z M192.75,843.436h106.186l27.576-27.574H220.325L192.75,843.436z"/>
		</g>
		<g>
			<path d="M400.869,835.608c-0.516,0-1.03-0.196-1.424-0.589c-0.786-0.787-0.786-2.062,0-2.847l34.908-34.906
				c0.786-0.786,2.06-0.786,2.846,0c0.786,0.787,0.786,2.06,0,2.847l-34.908,34.906
				C401.898,835.412,401.383,835.608,400.869,835.608z"/>
		</g>
		<g>
			<path d="M457.556,868.176c-0.516,0-1.03-0.197-1.424-0.59c-0.786-0.787-0.786-2.06,0-2.847l34.908-34.91
				c0.786-0.786,2.06-0.786,2.846,0c0.787,0.787,0.787,2.061,0,2.847l-34.908,34.91C458.585,867.979,458.07,868.176,457.556,868.176
				z"/>
		</g>
		<g>
			<path d="M419.226,862.628c-0.515,0-1.03-0.196-1.423-0.589c-0.787-0.787-0.787-2.061,0-2.847l58.723-58.721
				c0.787-0.787,2.061-0.787,2.847,0c0.786,0.785,0.786,2.06,0,2.846l-58.724,58.722
				C420.255,862.432,419.74,862.628,419.226,862.628z"/>
		</g>
	</g>
	<g>
		<path d="M496.32,255.792h-32.134c-1.113,0-2.013-0.9-2.013-2.013c0-1.112,0.9-2.012,2.013-2.012h32.134
			c1.113,0,2.013,0.9,2.013,2.012C498.333,254.892,497.433,255.792,496.32,255.792z"/>
	</g>
	<g>
		<path d="M98.337,255.792H66.203c-1.112,0-2.013-0.9-2.013-2.013c0-1.112,0.9-2.012,2.013-2.012h32.134
			c1.113,0,2.013,0.9,2.013,2.012C100.35,254.892,99.45,255.792,98.337,255.792z"/>
	</g>
	<g>
		<path d="M282.505,160.306c-1.112,0-2.013-0.9-2.013-2.013v-27.326c0-1.113,0.9-2.013,2.013-2.013c1.113,0,2.013,0.9,2.013,2.013
			v27.326C284.519,159.405,283.618,160.306,282.505,160.306z"/>
	</g>
	<g>
		<g>
			<path d="M922.085,849.297c-15.027,0-27.254-12.223-27.254-27.247c0-15.029,12.227-27.256,27.254-27.256
				s27.251,12.227,27.251,27.256C949.336,837.074,937.112,849.297,922.085,849.297z M922.085,798.82
				c-12.808,0-23.228,10.421-23.228,23.229c0,12.804,10.42,23.222,23.228,23.222c12.806,0,23.227-10.418,23.227-23.222
				C945.312,809.241,934.891,798.82,922.085,798.82z"/>
		</g>
		<g>
			<path d="M970.801,889.837c-0.224,0-0.45-0.036-0.669-0.114c-0.779-0.275-1.311-0.998-1.342-1.82
				c-0.67-17.459-14.888-31.136-32.368-31.136h-28.677c-17.479,0-31.695,13.677-32.364,31.136c-0.031,0.822-0.562,1.545-1.34,1.82
				c-0.777,0.271-1.646,0.052-2.188-0.578c-10.557-12.112-16.368-27.629-16.368-43.696c0-36.722,29.876-66.6,66.6-66.6
				s66.6,29.878,66.6,66.6c0,16.063-5.813,31.584-16.366,43.696C971.93,889.594,971.373,889.837,970.801,889.837z M922.085,782.874
				c-34.503,0-62.574,28.069-62.574,62.574c0,13.493,4.364,26.576,12.374,37.328c3.008-17.196,17.9-30.035,35.86-30.035h28.677
				c17.96,0,32.856,12.839,35.863,30.035c8.011-10.752,12.374-23.835,12.374-37.328
				C984.659,810.943,956.588,782.874,922.085,782.874z"/>
		</g>
		<g>
			<path d="M922.085,912.048c-19.259,0-37.567-8.346-50.234-22.903c-0.336-0.385-0.511-0.884-0.49-1.399
				c0.75-19.629,16.733-35.004,36.385-35.004h28.677c19.653,0,35.638,15.375,36.391,35.004c0.02,0.516-0.156,1.015-0.494,1.399
				C959.647,903.702,941.338,912.048,922.085,912.048z M875.423,887.108c11.876,13.3,28.838,20.914,46.662,20.914
				c17.82,0,34.781-7.614,46.664-20.914c-1.063-17.078-15.112-30.342-32.327-30.342h-28.677
				C890.532,856.767,876.484,870.03,875.423,887.108z"/>
		</g>
		<g>
			<g>
				<path fill="#FFFFFF" d="M1072.105,827.137l-104.288-0.008c-0.21-0.027-2.096-0.311-2.967-1.809
					c-0.375-0.621-0.684-1.69-0.056-3.267l0.092-0.236l23.416-19.821v-58.675c0-4.815,3.916-8.735,8.731-8.735h75.071
					c4.826,0,8.749,3.92,8.749,8.735v75.08C1080.854,823.217,1076.932,827.137,1072.105,827.137z"/>
				<path d="M1072.105,829.149L1072.105,829.149l-104.288-0.008c-0.771-0.083-3.383-0.531-4.705-2.811
					c-0.481-0.794-1.172-2.548-0.188-5.021c0.122-0.307,0.408-0.818,0.66-1.03l22.705-19.216v-57.743
					c0-5.928,4.82-10.748,10.744-10.748h75.071c5.935,0,10.763,4.82,10.763,10.748v75.08
					C1082.868,824.33,1078.04,829.149,1072.105,829.149z M966.6,823.005c-0.191,0.613-0.185,1.015-0.026,1.273
					c0.341,0.586,1.223,0.817,1.506,0.854l104.026-0.008c3.715,0,6.736-3.016,6.736-6.723v-75.08c0-3.706-3.021-6.722-6.736-6.722
					h-75.071c-3.704,0-6.719,3.016-6.719,6.722v58.675c0,0.593-0.261,1.156-0.711,1.537L966.6,823.005z"/>
			</g>
			<g>
				<line fill="#FFFFFF" x1="1007.378" y1="756.369" x2="1061.373" y2="756.369"/>
				<path d="M1061.373,758.383h-53.995c-1.112,0-2.013-0.9-2.013-2.014c0-1.112,0.9-2.013,2.013-2.013h53.995
					c1.114,0,2.014,0.9,2.014,2.013C1063.387,757.482,1062.487,758.383,1061.373,758.383z"/>
			</g>
			<g>
				<line fill="#FFFFFF" x1="1007.378" y1="779.088" x2="1061.373" y2="779.088"/>
				<path d="M1061.373,781.102h-53.995c-1.112,0-2.013-0.9-2.013-2.014c0-1.112,0.9-2.013,2.013-2.013h53.995
					c1.114,0,2.014,0.9,2.014,2.013C1063.387,780.201,1062.487,781.102,1061.373,781.102z"/>
			</g>
			<g>
				<line fill="#FFFFFF" x1="1007.378" y1="801.804" x2="1061.373" y2="801.804"/>
				<path d="M1061.373,803.816h-53.995c-1.112,0-2.013-0.9-2.013-2.013c0-1.113,0.9-2.014,2.013-2.014h53.995
					c1.114,0,2.014,0.9,2.014,2.014C1063.387,802.916,1062.487,803.816,1061.373,803.816z"/>
			</g>
		</g>
	</g>
	<g>
		<g>
			<path fill="#231F20" d="M1167.449,824.063c-1.025,0-1.898-0.778-2.001-1.816l-0.111-1.144
				c-0.586-5.76-5.406-10.155-11.212-10.218h-0.002c-3.06,0-5.886,1.159-8.042,3.263c-0.624,0.602-1.166,1.259-1.618,1.946
				l-0.606,0.939c-0.593,0.912-1.803,1.19-2.734,0.629l-0.974-0.59c-3.717-2.268-7.109-5.039-10.092-8.239l-0.773-0.826
				c-0.741-0.79-0.725-2.024,0.039-2.795l0.796-0.802c2.168-2.162,3.371-5.001,3.396-8.001c0.06-6.282-5.005-11.447-11.289-11.521
				c-0.367,0.012-0.813,0.034-1.269,0.078l-1.104,0.118c-1.118,0.153-2.074-0.657-2.213-1.746l-0.146-1.136
				c-0.28-2.358-0.412-4.521-0.402-6.633c0.02-2.209,0.197-4.446,0.529-6.654l0.168-1.121c0.164-1.073,1.168-1.789,2.222-1.702
				l1.125,0.129c0.426,0.056,0.853,0.096,1.281,0.103c0,0,0,0,0.002,0c3.076,0,5.901-1.147,8.041-3.227
				c2.19-2.135,3.411-4.997,3.438-8.052c0.039-3.035-1.107-5.885-3.226-8.04l-0.807-0.833c-0.76-0.782-0.757-2.032,0.01-2.811
				l0.797-0.81c2.997-3.102,6.442-5.815,10.229-8.06l1.008-0.582c0.942-0.559,2.157-0.243,2.726,0.691l0.602,0.984
				c2.055,3.306,5.629,5.311,9.553,5.354h0.002c3.072,0,5.891-1.144,8.023-3.224c1.857-1.813,3.053-4.222,3.365-6.785l0.138-1.12
				c0.13-1.074,1.103-1.806,2.156-1.762l1.135,0.09c4.424,0.417,8.763,1.436,12.925,3.023l1.086,0.421
				c1.021,0.394,1.537,1.529,1.165,2.56l-0.391,1.085c-0.465,1.27-0.708,2.559-0.724,3.849c-0.053,6.259,5.01,11.412,11.289,11.476
				c2.205,0,4.322-0.605,6.166-1.75l0.967-0.601c0.939-0.586,2.164-0.308,2.758,0.617l0.617,0.959
				c2.406,3.707,4.297,7.721,5.615,11.927l0.345,1.089c0.326,1.038-0.23,2.146-1.256,2.505l-1.081,0.377
				c-1.609,0.551-3.093,1.459-4.303,2.643c-2.193,2.135-3.412,4.988-3.437,8.035c-0.047,4.819,2.975,9.16,7.519,10.811l1.079,0.394
				c1.019,0.373,1.558,1.49,1.219,2.52l-0.354,1.081c-1.357,4.113-3.299,8.063-5.776,11.739l-0.664,0.967
				c-0.623,0.904-1.855,1.141-2.771,0.539l-0.965-0.642c-1.854-1.21-3.987-1.863-6.153-1.874c-0.002,0-0.002,0-0.003,0
				c-3.108,0-5.921,1.147-8.062,3.227c-2.19,2.14-3.41,4.997-3.432,8.043c0,1.365,0.225,2.705,0.668,3.976l0.381,1.076
				c0.177,0.508,0.147,1.059-0.082,1.542c-0.229,0.479-0.643,0.854-1.146,1.029l-1.092,0.386c-4.161,1.518-8.532,2.465-12.977,2.803
				l-1.128,0.087C1167.558,824.058,1167.503,824.063,1167.449,824.063z M1154.042,806.858c7.702,0.083,14.047,5.627,15.194,13.025
				c3.536-0.33,7.009-1.081,10.356-2.237c-0.42-1.455-0.633-2.964-0.633-4.506c0.03-4.143,1.682-8.012,4.649-10.908
				c2.899-2.823,6.71-4.372,10.734-4.372c2.822,0.016,5.46,0.743,7.805,2.107c1.905-2.941,3.447-6.074,4.584-9.321
				c-5.716-2.422-9.469-8.083-9.407-14.329c0.032-4.129,1.685-7.993,4.651-10.886c1.438-1.404,3.162-2.524,5.023-3.271
				c-1.11-3.329-2.612-6.522-4.478-9.514c-2.306,1.267-4.889,1.931-7.521,1.931c-8.578-0.087-15.43-7.061-15.357-15.544
				c0.02-1.482,0.253-2.952,0.7-4.392c-3.336-1.207-6.792-2.017-10.29-2.409c-0.562,3.16-2.115,6.108-4.429,8.365
				c-2.89,2.819-6.707,4.368-10.752,4.368c-5.154-0.056-9.771-2.505-12.616-6.59c-2.968,1.828-5.704,3.982-8.144,6.416
				c2.509,2.835,3.859,6.463,3.81,10.293c-0.035,4.131-1.688,8.003-4.654,10.897c-2.899,2.818-6.721,4.367-10.762,4.367
				c-0.374-0.004-0.708-0.02-1.018-0.044c-0.233,1.762-0.357,3.538-0.373,5.288c-0.008,1.693,0.085,3.436,0.281,5.304
				c0.271-0.021,0.539-0.027,0.803-0.036c8.57,0.099,15.418,7.089,15.34,15.584c-0.031,3.79-1.447,7.383-4.002,10.21
				c2.417,2.503,5.112,4.705,8.027,6.557c0.51-0.691,1.08-1.344,1.708-1.954C1146.184,808.424,1150.009,806.858,1154.042,806.858z"
				/>
		</g>
		<g>
			<path fill="#231F20" d="M1164.701,802.629c0,0,0,0-0.002,0c-7.255,0-14.036-2.861-19.098-8.056
				c-10.255-10.527-10.032-27.439,0.491-37.696c5.007-4.875,11.611-7.563,18.6-7.563c7.254,0,14.035,2.861,19.096,8.059
				c4.97,5.096,7.654,11.825,7.563,18.945c-0.092,7.123-2.95,13.778-8.049,18.748
				C1178.298,799.939,1171.691,802.629,1164.701,802.629z M1164.692,753.338c-5.934,0-11.541,2.281-15.788,6.425
				c-8.938,8.707-9.125,23.064-0.419,32.005c4.294,4.406,10.054,6.836,16.214,6.836c0.002,0,0.002,0,0.002,0
				c5.935,0,11.543-2.28,15.791-6.424c4.328-4.214,6.755-9.867,6.834-15.913c0.076-6.047-2.203-11.76-6.422-16.087
				C1176.607,755.769,1170.852,753.338,1164.692,753.338z"/>
		</g>
	</g>
</g>
</svg>
